<?xml version="1.0" encoding="UTF-8" standalone="no"?>
<svg
   width="1.12333in"
   height="0.72in"
   viewBox="0 0 337 216"
   version="1.1"
   id="svg1"
   sodipodi:docname="Kamera.svg"
   inkscape:version="1.3.2 (091e20e, 2023-11-25, custom)"
   xmlns:inkscape="http://www.inkscape.org/namespaces/inkscape"
   xmlns:sodipodi="http://sodipodi.sourceforge.net/DTD/sodipodi-0.dtd"
   xmlns="http://www.w3.org/2000/svg"
   xmlns:svg="http://www.w3.org/2000/svg">
  <defs
     id="defs1" />
  <sodipodi:namedview
     id="namedview1"
     pagecolor="#ffffff"
     bordercolor="#000000"
     borderopacity="0.25"
     inkscape:showpageshadow="2"
     inkscape:pageopacity="0.0"
     inkscape:pagecheckerboard="0"
     inkscape:deskcolor="#d1d1d1"
     inkscape:document-units="in"
     inkscape:zoom="11.762152"
     inkscape:cx="53.901701"
     inkscape:cy="34.560002"
     inkscape:window-width="1920"
     inkscape:window-height="1009"
     inkscape:window-x="1912"
     inkscape:window-y="529"
     inkscape:window-maximized="1"
     inkscape:current-layer="svg1" />
  <path
     id="Auswahl"
     fill="none"
     stroke="black"
     stroke-width="1"
     d="M 54.00,24.15            C 54.00,24.15 105.00,24.15 105.00,24.15              105.00,24.15 197.00,24.15 197.00,24.15              212.58,24.19 219.98,30.11 220.00,46.00              220.00,46.00 220.00,156.00 220.00,156.00              220.00,158.99 220.10,162.11 219.20,165.00              216.11,174.86 208.10,176.99 199.00,177.00              199.00,177.00 75.00,177.00 75.00,177.00              62.06,177.00 43.16,180.69 37.85,165.00              36.88,162.12 37.00,159.00 37.00,156.00              37.00,156.00 37.00,45.00 37.00,45.00              37.06,32.68 41.82,26.80 54.00,24.15 Z            M 293.00,158.00            C 287.29,156.37 284.14,153.95 279.00,151.25              279.00,151.25 246.00,133.25 246.00,133.25              232.93,126.40 232.02,127.16 232.00,118.00              232.00,118.00 232.00,84.00 232.00,84.00              232.02,74.54 233.50,75.42 246.00,68.78              246.00,68.78 274.00,53.58 274.00,53.58              279.51,50.47 287.17,45.67 293.00,44.00              293.00,44.00 293.00,158.00 293.00,158.00 Z"
     style="stroke:#ffffff;stroke-opacity:1;fill:#ffffff;fill-opacity:1" />
</svg>
