<?xml version="1.0" encoding="UTF-8" standalone="no"?>
<svg
   width="1.66667in"
   height="1.66667in"
   viewBox="0 0 500 500"
   version="1.1"
   id="svg1"
   sodipodi:docname="phone.svg"
   inkscape:version="1.3.2 (091e20e, 2023-11-25, custom)"
   xmlns:inkscape="http://www.inkscape.org/namespaces/inkscape"
   xmlns:sodipodi="http://sodipodi.sourceforge.net/DTD/sodipodi-0.dtd"
   xmlns="http://www.w3.org/2000/svg"
   xmlns:svg="http://www.w3.org/2000/svg">
  <defs
     id="defs1" />
  <sodipodi:namedview
     id="namedview1"
     pagecolor="#ffffff"
     bordercolor="#000000"
     borderopacity="0.25"
     inkscape:showpageshadow="2"
     inkscape:pageopacity="0.0"
     inkscape:pagecheckerboard="0"
     inkscape:deskcolor="#d1d1d1"
     inkscape:document-units="in"
     showgrid="false"
     inkscape:zoom="5.0812399"
     inkscape:cx="80.098559"
     inkscape:cy="80.000158"
     inkscape:window-width="1920"
     inkscape:window-height="1009"
     inkscape:window-x="1912"
     inkscape:window-y="529"
     inkscape:window-maximized="1"
     inkscape:current-layer="svg1" />
  <path
     id="Auswahl"
     fill="none"
     stroke="black"
     stroke-width="1"
     d="M 157.00,98.47            C 176.15,95.79 182.30,103.30 195.00,116.00              201.87,122.87 207.64,127.96 209.53,138.00              213.15,157.16 198.28,164.01 194.22,177.00              190.10,190.20 200.56,205.27 208.46,215.00              217.70,226.39 229.79,237.63 243.00,244.24              248.18,246.83 255.11,249.41 261.00,248.69              271.23,247.42 275.48,241.00 283.00,236.48              293.35,230.25 306.14,230.58 316.00,237.63              323.91,243.29 340.49,260.43 343.21,270.00              344.02,272.82 344.00,275.11 344.00,278.00              344.00,285.11 342.94,289.97 338.90,296.00              329.85,309.46 306.16,319.92 290.00,320.00              290.00,320.00 283.00,320.00 283.00,320.00              263.42,319.77 240.55,306.79 225.00,295.71              202.28,279.51 181.86,260.15 163.73,239.00              149.95,222.93 138.07,207.43 129.31,188.00              118.60,164.22 118.90,138.93 133.67,117.00              140.23,107.27 145.17,101.28 157.00,98.47 Z"
     style="fill:#ffffff;fill-opacity:1;stroke:#ffffff;stroke-opacity:1" />
</svg>
