<?xml version="1.0" encoding="UTF-8" standalone="no"?>
<svg
   width="2in"
   height="2in"
   viewBox="0 0 600 600"
   version="1.1"
   id="svg1"
   sodipodi:docname="Plus.svg"
   inkscape:version="1.3.2 (091e20e, 2023-11-25, custom)"
   xmlns:inkscape="http://www.inkscape.org/namespaces/inkscape"
   xmlns:sodipodi="http://sodipodi.sourceforge.net/DTD/sodipodi-0.dtd"
   xmlns="http://www.w3.org/2000/svg"
   xmlns:svg="http://www.w3.org/2000/svg">
  <defs
     id="defs1" />
  <sodipodi:namedview
     id="namedview1"
     pagecolor="#ffffff"
     bordercolor="#000000"
     borderopacity="0.25"
     inkscape:showpageshadow="2"
     inkscape:pageopacity="0.0"
     inkscape:pagecheckerboard="0"
     inkscape:deskcolor="#d1d1d1"
     inkscape:document-units="in"
     inkscape:zoom="5.6568543"
     inkscape:cx="74.776542"
     inkscape:cy="90.598056"
     inkscape:window-width="1920"
     inkscape:window-height="1009"
     inkscape:window-x="1912"
     inkscape:window-y="529"
     inkscape:window-maximized="1"
     inkscape:current-layer="svg1" />
  <path
     id="Auswahl"
     fill="none"
     stroke="black"
     stroke-width="1"
     d="M 280.00,158.21            C 280.00,158.21 297.00,158.21 297.00,158.21              311.72,158.02 327.39,161.95 341.00,167.40              355.45,173.18 368.46,181.73 380.00,192.17              387.45,198.91 394.85,208.53 400.31,217.00              441.32,280.67 416.50,367.00 349.00,400.75              327.45,411.53 309.80,414.27 286.00,414.00              278.56,413.91 267.31,411.71 260.00,409.87              188.33,391.88 146.44,313.55 170.69,244.00              183.21,208.11 212.29,178.65 248.00,165.69              259.44,161.55 268.15,160.14 280.00,158.21 Z            M 290.00,203.33            C 279.85,205.84 278.02,211.51 278.00,221.00              278.00,221.00 278.00,252.00 278.00,252.00              278.00,256.07 279.17,267.65 275.69,269.98              273.84,271.21 270.19,271.00 268.00,271.00              268.00,271.00 242.00,271.00 242.00,271.00              234.28,271.00 220.00,269.31 214.11,274.39              207.08,280.45 207.55,291.87 215.04,297.35              218.96,300.21 222.43,299.99 227.00,300.00              227.00,300.00 270.00,300.00 270.00,300.00              278.15,300.15 277.99,302.78 278.00,310.00              278.00,310.00 278.00,352.00 278.00,352.00              278.05,361.85 283.00,369.91 294.00,368.80              304.50,367.75 306.99,360.05 307.00,351.00              307.00,351.00 307.00,308.00 307.00,308.00              307.15,299.85 309.78,300.01 317.00,300.00              317.00,300.00 358.00,300.00 358.00,300.00              367.85,299.95 375.91,295.00 374.80,284.00              374.23,278.29 370.54,273.39 365.00,271.65              361.99,270.70 354.49,271.00 351.00,271.00              351.00,271.00 325.00,271.00 325.00,271.00              321.04,271.00 310.32,272.14 308.02,268.69              306.79,266.84 307.00,263.19 307.00,261.00              307.00,261.00 307.00,219.00 307.00,219.00              306.85,208.33 300.77,202.37 290.00,203.33 Z"
     style="fill:#ffffff;fill-opacity:1;stroke:#040404;stroke-opacity:1" />
  <path
     style="fill:#000000;fill-opacity:1;stroke:#000000;stroke-width:0.0480937;stroke-dasharray:none;stroke-opacity:1"
     d="m 91.534141,117.29975 c -0.938693,-0.47607 -1.662085,-1.37821 -2.061176,-2.57048 -0.136696,-0.40837 -0.226097,-3.25182 -0.29015,-9.22848 l -0.09258,-8.63825 -0.424353,-0.424146 C 88.368679,96.141337 87.943367,95.965422 87.24645,95.8513 86.699158,95.76168 82.686857,95.68792 78.330227,95.687387 70.687344,95.686454 70.384243,95.674395 69.702,95.344128 c -1.422341,-0.688544 -2.571213,-2.475604 -2.571213,-3.9995 0,-1.329701 1.075131,-3.190678 2.170608,-3.757171 1.134104,-0.586468 1.992248,-0.641014 10.299032,-0.654644 8.063859,-0.01323 8.219826,-0.01976 8.683585,-0.363407 0.872962,-0.646873 0.906341,-0.987796 0.897226,-9.164268 -0.0047,-4.185107 0.0644,-7.959605 0.155754,-8.51273 0.240133,-1.453883 0.890104,-2.400468 2.058619,-2.998069 2.485394,-1.271077 5.326479,-0.343289 6.233591,2.035649 0.270013,0.708117 0.309141,1.645904 0.38939,9.332334 l 0.08921,8.545112 0.389466,0.414342 c 0.683862,0.727544 1.350282,0.78106 9.726382,0.78106 5.6992,0 8.0708,0.05621 8.56788,0.203082 1.02719,0.303491 2.34364,1.684317 2.67745,2.80839 0.67205,2.263047 -0.0803,4.158789 -2.03046,5.116428 l -0.96159,0.472188 -8.5166,0.08819 c -6.48837,0.06718 -8.618158,0.13961 -8.943072,0.304119 -0.924871,0.468276 -0.902185,0.249976 -1.000478,9.627207 -0.08054,7.6838 -0.124179,8.76879 -0.379008,9.42359 -0.702658,1.80552 -1.773142,2.53573 -3.871762,2.64106 -1.197309,0.0601 -1.428905,0.0199 -2.231871,-0.38734 z"
     id="path36"
     transform="scale(3.125)" />
  <path
     style="fill:#000000;fill-opacity:1;stroke:#000000;stroke-width:0.0480937;stroke-dasharray:none;stroke-opacity:1"
     d="m 91.661968,117.2299 c -0.731138,-0.38644 -1.604903,-1.35376 -1.951323,-2.16026 -0.211219,-0.49174 -0.288275,-2.16245 -0.438339,-9.50402 l -0.18207,-8.907403 -0.39154,-0.316726 c -0.215347,-0.174201 -0.666226,-0.385469 -1.001952,-0.469486 -0.335727,-0.08402 -4.354328,-0.193619 -8.930225,-0.243561 -8.041201,-0.08776 -8.344332,-0.102672 -9.051978,-0.445237 -1.408838,-0.682008 -2.406683,-2.25632 -2.413095,-3.807173 -0.0074,-1.787282 1.322643,-3.601488 2.970214,-4.051463 0.564182,-0.154087 3.14357,-0.240732 9.216536,-0.3096 8.912805,-0.101072 8.945835,-0.104213 9.38321,-0.892671 0.233826,-0.421518 0.25573,-0.988412 0.395062,-10.224433 0.110971,-7.356128 0.187426,-7.979789 1.106594,-9.026662 0.287355,-0.32728 0.827955,-0.750904 1.201332,-0.941387 0.833492,-0.425216 2.447209,-0.572597 3.411774,-0.311598 0.862772,0.233455 1.927759,1.152866 2.415881,2.085648 0.342351,0.654214 0.361991,1.004776 0.530633,9.471199 0.199233,10.002257 0.08604,9.342914 1.654979,9.640736 0.471919,0.08958 4.465059,0.209465 8.873649,0.266409 9.16866,0.118428 8.88812,0.07349 10.1101,1.619414 1.71206,2.165918 1.2334,4.977787 -1.06232,6.240623 l -0.97174,0.534536 -7.46136,0.108817 c -8.38444,0.12228 -10.008822,0.203767 -10.446852,0.524063 -0.287909,0.210523 -0.128584,-5.110923 -0.776553,2.874525 l -0.502677,6.19489 -0.09226,-2.62988 c -0.151355,-4.314384 0.822319,-3.664883 0.7943,-2.10351 -0.02802,1.56138 -0.108013,5.39384 -0.177762,8.51659 l -0.126815,5.67773 -0.631068,1.08511 c -0.835813,1.43717 -1.690844,1.84128 -3.767769,1.82894 -0.734688,-0.004 -1.279696,-0.10912 -1.686564,-0.32416 z"
     id="path37"
     transform="scale(3.125)"
     sodipodi:nodetypes="ssscsssssssssssssssssscssscssscscss" />
</svg>
