<?xml version="1.0" encoding="UTF-8" standalone="no"?>
<svg
   width="135.486mm"
   height="135.486mm"
   viewBox="0 0 512 512"
   version="1.1"
   id="svg1"
   sodipodi:docname="send.svg"
   inkscape:version="1.3.2 (091e20e, 2023-11-25, custom)"
   xmlns:inkscape="http://www.inkscape.org/namespaces/inkscape"
   xmlns:sodipodi="http://sodipodi.sourceforge.net/DTD/sodipodi-0.dtd"
   xmlns="http://www.w3.org/2000/svg"
   xmlns:svg="http://www.w3.org/2000/svg">
  <defs
     id="defs1" />
  <sodipodi:namedview
     id="namedview1"
     pagecolor="#ffffff"
     bordercolor="#000000"
     borderopacity="0.25"
     inkscape:showpageshadow="2"
     inkscape:pageopacity="0.0"
     inkscape:pagecheckerboard="0"
     inkscape:deskcolor="#d1d1d1"
     inkscape:document-units="mm"
     inkscape:zoom="1.5876641"
     inkscape:cx="255.72159"
     inkscape:cy="256.03652"
     inkscape:window-width="1920"
     inkscape:window-height="1009"
     inkscape:window-x="1912"
     inkscape:window-y="529"
     inkscape:window-maximized="1"
     inkscape:current-layer="svg1" />
  <path
     id="Auswahl"
     fill="none"
     stroke="#000000"
     stroke-width="1"
     d="m 47.522755,94.682805 c 2.91,-0.18 5.06,-0.3 8,0 6.79,-0.06 13.68,2.97 20,5.339995 0,0 26.999995,9.73 26.999995,9.73 0,0 116,42.03 116,42.03 0,0 122,44.24 122,44.24 0,0 110,39.84 110,39.84 15.38,5.76 32.95,8.57 36.53,27.58 1.9,10.04 -2.2,20.82 -10.57,26.78 -4.92,3.51 -21.46,9.01 -27.96,11.22 0,0 -43,15.66 -43,15.66 0,0 -123,44.65 -123,44.65 0,0 -80,29 -80,29 0,0 -81,29.27 -81,29.27 0,0 -39.999995,14.47 -39.999995,14.47 -6.67,2.44 -18.38,7.38 -25,7.86 -12.71,0.93 -25.42,-5.71 -28.47,-18.91 -0.63,-2.7 -0.56,-6.2 -0.53,-9 0.14,-11.77 10.3,-25.48 15.74,-36 0,0 41.57,-77 41.57,-77 0,0 11.95,-22 11.95,-22 1.55,-3 4.049995,-6.71 4.499995,-10 0.71,-5.09 -2.169995,-8.79 -4.449995,-13 0,0 -12.45,-23 -12.45,-23 0,0 -49.61,-91 -49.61,-91 -2.06,-3.94 -4.48,-7.77 -5.89,-12 -3.86,-11.6 -0.57,-24.68 9.65,-31.779995 3.3,-2.28 5.19,-2.85 8.99,-3.98 z m 6,15.269995 c -5.35,0.98 -9.45,3.74 -10.38,9.49 -0.87,5.39 4.13,12.36 6.6,17 0,0 20.03,37 20.03,37 0,0 32.169995,59 32.169995,59 4.14,7.33 14.9,25.42 15.49,33 0.88,11.44 -9.81,27.93 -15.49,38 0,0 -39.559995,73 -39.559995,73 0,0 -14.1,26 -14.1,26 -1.41,2.75 -4.58,8.31 -5.19,11 -1.48,6.5 3.81,13.16 10.43,13.37 4.11,0.14 21.91,-6.93 27,-8.71 0,0 63.999995,-23.32 63.999995,-23.32 0,0 78,-28.29 78,-28.29 0,0 155,-56.1 155,-56.1 0,0 73,-26.53 73,-26.53 8.09,-3.02 21.53,-5.22 20.85,-16.42 -0.59,-9.73 -15.15,-12.64 -22.85,-15.34 0,0 -73,-26.61 -73,-26.61 0,0 -223,-80.74 -223,-80.74 0,0 -67.999995,-24.65 -67.999995,-24.65 -7.46,-2.62 -24.13,-9.71 -31,-10.15 z"
     style="fill:#ffffff;fill-opacity:1;stroke:#ffffff;stroke-opacity:1" />
</svg>
